<svg xmlns="http://www.w3.org/2000/svg" xmlns:xlink="http://www.w3.org/1999/xlink" width="1020" height="312" viewBox="0 0 1020 312"><defs><linearGradient id="a" x1="0.009" y1="0.532" x2="0.853" y2="0.558" gradientUnits="objectBoundingBox"><stop offset="0" stop-color="#6c51df"/><stop offset="1" stop-color="#6143df"/></linearGradient><clipPath id="b"><rect width="1020" height="311" transform="translate(-384 197)" fill="#6246df"/></clipPath></defs><g transform="translate(384 -197)"><rect width="1020" height="311" transform="translate(-384 198)" fill="url(#a)"/><g clip-path="url(#b)"><g transform="translate(241 206)"><ellipse cx="264.5" cy="268" rx="264.5" ry="268" transform="translate(22 -122)" fill="#e66c76"/></g></g><g transform="translate(31 231)"><g transform="translate(310)"><ellipse cx="97.049" cy="97.61" rx="97.049" ry="97.61" transform="translate(0 49.365)" fill="#f3faff"/></g><g transform="translate(310)"><circle cx="10.781" cy="10.781" r="10.781" transform="translate(35.938 136.563)" fill="#9747ff"/></g><g transform="translate(310)"><circle cx="10.781" cy="10.781" r="10.781" transform="translate(79.063 136.563)" fill="#9747ff"/></g><g transform="translate(310)"><circle cx="10.781" cy="10.781" r="10.781" transform="translate(122.188 136.563)" fill="#9747ff"/></g><g transform="translate(310)"><path d="M114.341,79.1a4.137,4.137,0,0,0-.162-1.828,59.309,59.309,0,1,1,23.664,31.394,4.162,4.162,0,0,0-3.866-.432l-21.932,8.878a2,2,0,0,1-2.722-2.143Z" fill="#9747ff" fill-rule="evenodd"/></g><g transform="translate(310)"><circle cx="7.188" cy="7.188" r="7.188" transform="translate(129.374 53.906)" fill="#f3faff"/></g><g transform="translate(310)"><circle cx="7.188" cy="7.188" r="7.188" transform="translate(161.719 53.906)" fill="#f3faff"/></g><g transform="translate(310)"><circle cx="7.188" cy="7.188" r="7.188" transform="translate(194.063 53.906)" fill="#f3faff"/></g></g></g></svg>